<svg width="24" height="24" viewBox="0 0 24 24" fill="none" xmlns="http://www.w3.org/2000/svg">
<path d="M7.85938 6.07405C7.7682 6.07484 7.68102 6.11435 7.61692 6.184C7.61692 6.184 6.22534 7.69413 4.83136 9.62005C3.43737 11.5461 2 13.8437 2 15.7037C2 19.1766 4.62862 22 7.86207 22C11.0955 22 13.7241 19.1766 13.7241 15.7037C13.7241 13.8437 12.2868 11.5461 10.8928 9.62005C9.49879 7.69413 8.10722 6.184 8.10722 6.184C8.07484 6.14882 8.03623 6.12097 7.99366 6.10208C7.95109 6.08318 7.90543 6.07368 7.85938 6.07405ZM7.86207 7.00865C8.07538 7.24317 9.10646 8.35819 10.3486 10.0743C11.7132 11.9598 13.0345 14.2909 13.0345 15.7037C13.0345 18.7763 10.7228 21.2592 7.86207 21.2592C5.00134 21.2592 2.68966 18.7763 2.68966 15.7037C2.68966 14.2909 4.01091 11.9598 5.37554 10.0743C6.61768 8.35819 7.64876 7.24317 7.86207 7.00865Z" fill="#0069E4"/>
<path d="M18.2055 2C18.1597 2.00039 18.1145 2.01055 18.0724 2.02993C18.0303 2.04931 17.9922 2.07749 17.9604 2.11285C17.9604 2.11285 17.0859 3.07443 16.2093 4.30324C15.3328 5.53205 14.4138 6.98469 14.4138 8.24276C14.4138 10.5155 16.1134 12.3704 18.2069 12.3704C20.3004 12.3704 22 10.5155 22 8.24276C22 6.98469 21.081 5.53205 20.2045 4.30324C19.3279 3.07443 18.4534 2.11285 18.4534 2.11285C18.4212 2.07714 18.3827 2.04878 18.3401 2.02939C18.2976 2.00999 18.2518 2.00001 18.2055 2ZM18.2069 2.9375C18.4024 3.15743 18.933 3.73748 19.6576 4.75318C20.5052 5.9414 21.3103 7.42536 21.3103 8.24276C21.3103 10.1209 19.9222 11.6296 18.2069 11.6296C16.4915 11.6296 15.1034 10.1209 15.1034 8.24276C15.1034 7.42536 15.9086 5.9414 16.7562 4.75318C17.4807 3.73748 18.0114 3.15743 18.2069 2.9375Z" fill="#0069E4"/>
<path d="M4.40841 15.3333C4.36312 15.3341 4.31842 15.3444 4.27686 15.3637C4.23529 15.383 4.19767 15.4109 4.16615 15.4459C4.13463 15.4808 4.10983 15.522 4.09315 15.5672C4.07648 15.6124 4.06826 15.6608 4.06897 15.7095C4.07043 17.6686 5.33232 19.3671 7.09564 19.7691C7.18512 19.7896 7.27854 19.7711 7.35533 19.7176C7.43212 19.6642 7.486 19.5802 7.50511 19.484C7.52423 19.3879 7.50701 19.2876 7.45724 19.2051C7.40748 19.1226 7.32925 19.0648 7.23976 19.0442C5.79657 18.7152 4.75983 17.3281 4.75862 15.7095C4.75934 15.6598 4.75078 15.6106 4.73343 15.5646C4.71609 15.5186 4.69032 15.4768 4.65765 15.4417C4.62499 15.4066 4.58609 15.379 4.54328 15.3603C4.50046 15.3417 4.4546 15.3325 4.40841 15.3333Z" fill="#0069E4"/>
<path d="M16.4774 7.92589C16.4321 7.92665 16.3874 7.93696 16.3458 7.95627C16.3043 7.97558 16.2666 8.00353 16.2351 8.03846C16.2036 8.07339 16.1788 8.11458 16.1621 8.15981C16.1454 8.20504 16.1372 8.25341 16.1379 8.30204C16.1387 9.36516 16.825 10.2908 17.7853 10.5098C17.8748 10.5303 17.9682 10.5118 18.045 10.4583C18.1218 10.4049 18.1757 10.3209 18.1948 10.2248C18.2139 10.1287 18.1967 10.0283 18.1469 9.94583C18.0971 9.86335 18.0189 9.8055 17.9294 9.78497C17.2893 9.63897 16.8281 9.02479 16.8276 8.30204C16.8283 8.25243 16.8197 8.20318 16.8024 8.15719C16.7851 8.1112 16.7593 8.06939 16.7266 8.0343C16.694 7.99922 16.6551 7.97155 16.6122 7.95292C16.5694 7.9343 16.5236 7.92511 16.4774 7.92589Z" fill="#0069E4"/>
</svg>
