<svg width="24" height="24" viewBox="0 0 24 24" fill="none" xmlns="http://www.w3.org/2000/svg">
<path d="M21.0044 9.42397L20.1298 8.23237C19.9332 7.96554 19.65 7.77535 19.3287 7.69436C19.0073 7.61337 18.6678 7.64662 18.3683 7.78843L15.1656 2.95914C15.1342 2.9012 15.0998 2.84496 15.0625 2.79065L15.0577 2.78351C14.92 2.58588 14.7446 2.41739 14.5415 2.28771C14.3385 2.15803 14.1119 2.06973 13.8747 2.02785C13.6375 1.98598 13.3943 1.99137 13.1592 2.0437C12.924 2.09604 12.7016 2.1943 12.5045 2.33284L4.14577 8.2055C3.95942 8.30657 3.78864 8.43401 3.63872 8.5839C3.43271 8.78989 3.27008 9.03507 3.16041 9.30497C3.05074 9.57486 2.99626 9.86399 3.0002 10.1553C3.00413 10.4466 3.0664 10.7341 3.18332 11.001C3.30024 11.2678 3.46944 11.5085 3.68094 11.7089L9.48692 17.2093V18.216H8.94635C8.51639 18.2165 8.10418 18.3875 7.80015 18.6915C7.49613 18.9956 7.32512 19.4078 7.32464 19.8377V20.3783C7.32512 20.8083 7.49613 21.2205 7.80015 21.5245C8.10418 21.8285 8.51639 21.9995 8.94635 22H15.4332C15.8631 21.9995 16.2754 21.8285 16.5794 21.5245C16.8834 21.2205 17.0544 20.8083 17.0549 20.3783V19.8377C17.0544 19.4078 16.8834 18.9956 16.5794 18.6915C16.2754 18.3875 15.8631 18.2165 15.4332 18.216H14.8926V16.5943C14.8923 16.182 14.7975 15.7753 14.6155 15.4054C14.4335 15.0355 14.1691 14.7123 13.8427 14.4605L13.8444 14.4585L6.56909 8.44446C6.42685 8.32759 6.2705 8.22903 6.10371 8.1511L13.126 3.21732C13.2881 3.10338 13.4888 3.05836 13.6841 3.09213C13.8793 3.1259 14.0532 3.2357 14.1677 3.39746L14.1711 3.40249C14.2829 3.56147 14.3282 3.75781 14.2974 3.9497C14.2665 4.14158 14.162 4.31384 14.006 4.42979L8.62223 8.46452C8.56542 8.50708 8.51754 8.56042 8.48134 8.62149C8.44515 8.68255 8.42133 8.75015 8.41125 8.82042C8.40118 8.89069 8.40505 8.96226 8.42263 9.03103C8.44021 9.09981 8.47117 9.16445 8.51374 9.22126C8.5997 9.336 8.72772 9.41189 8.86964 9.43223C8.93991 9.44231 9.01147 9.43844 9.08025 9.42086C9.14903 9.40328 9.21367 9.37232 9.27048 9.32975L12.9122 6.60055L15.5492 9.85659C15.3236 10.0997 15.1898 10.4139 15.1708 10.745C15.1518 11.0761 15.2489 11.4035 15.4452 11.6709L16.3197 12.8625C16.4046 12.978 16.5318 13.0552 16.6736 13.0769C16.8153 13.0986 16.9598 13.0632 17.0754 12.9783C17.191 12.8935 17.2681 12.7662 17.2899 12.6245C17.3116 12.4828 17.2761 12.3382 17.1913 12.2226L16.3167 11.031C16.2624 10.957 16.2397 10.8644 16.2537 10.7737C16.2676 10.6829 16.317 10.6014 16.391 10.5471L18.7743 8.79789C18.8483 8.74367 18.9409 8.72104 19.0316 8.73497C19.1223 8.7489 19.2038 8.79825 19.2582 8.87219L20.1328 10.0638C20.1748 10.121 20.2277 10.1694 20.2884 10.2062C20.3491 10.243 20.4165 10.2675 20.4867 10.2782C20.5568 10.289 20.6284 10.2858 20.6974 10.2689C20.7663 10.252 20.8313 10.2217 20.8885 10.1797C20.9457 10.1377 20.9941 10.0848 21.0309 10.0241C21.0677 9.96335 21.0922 9.89599 21.1029 9.82582C21.1137 9.75564 21.1105 9.68404 21.0936 9.61509C21.0767 9.54614 21.0464 9.4812 21.0044 9.42397ZM15.9738 19.8377V20.3783C15.9736 20.5216 15.9166 20.659 15.8153 20.7604C15.7139 20.8617 15.5765 20.9187 15.4332 20.9189H8.94635C8.80303 20.9187 8.66562 20.8617 8.56427 20.7604C8.46292 20.659 8.40593 20.5216 8.40578 20.3783V19.8377C8.40593 19.6944 8.46292 19.557 8.56427 19.4556C8.66562 19.3543 8.80303 19.2973 8.94635 19.2972H15.4332C15.5765 19.2973 15.7139 19.3543 15.8153 19.4556C15.9166 19.557 15.9736 19.6944 15.9738 19.8377ZM10.5681 18.216V16.5943C10.5681 16.1642 10.7389 15.7517 11.043 15.4476C11.3472 15.1435 11.7597 14.9726 12.1898 14.9726C12.6199 14.9726 13.0324 15.1435 13.3365 15.4476C13.6406 15.7517 13.8115 16.1642 13.8115 16.5943V18.216H10.5681ZM11.556 13.9696C11.0961 14.0814 10.6735 14.3116 10.3302 14.6375C9.98697 14.9633 9.73504 15.3734 9.59952 15.8269L4.42449 10.9241C4.21748 10.7281 4.09472 10.4593 4.08211 10.1744C4.0695 9.88961 4.16804 9.61101 4.35692 9.39744C4.54581 9.18386 4.81027 9.05201 5.09451 9.02971C5.37875 9.0074 5.66055 9.09639 5.88043 9.27789L11.556 13.9696ZM14.6543 5.295C14.8301 5.16303 14.9807 5.0006 15.0992 4.81543L17.4805 8.40627L16.4051 9.1955L13.778 5.95165L14.6543 5.295Z" fill="#77848D"/>
</svg>
