<svg width="24" height="24" viewBox="0 0 24 24" fill="none" xmlns="http://www.w3.org/2000/svg">
<path d="M16.8031 14.1875C17.5568 12.9676 17.9995 11.5362 17.9995 9.99999C17.9995 5.58866 14.4109 2 9.99978 2C5.58858 2 2 5.58866 2 9.99999C2 14.4113 5.58858 18 9.99978 18C11.536 18 12.9673 17.5572 14.1872 16.8035L18.5061 21.3656C18.8905 21.7746 19.4131 22 19.9772 22C20.5174 22 21.0256 21.7895 21.408 21.4066C21.7974 21.0176 22.0076 20.4996 21.9998 19.9484C21.992 19.398 21.7677 18.8871 21.3682 18.5094L16.8031 14.1875ZM2.79998 9.99999C2.79998 6.03007 6.02998 2.8 9.99978 2.8C13.9696 2.8 17.1995 6.03007 17.1995 9.99999C17.1995 13.9699 13.9696 17.2 9.99978 17.2C6.02998 17.2 2.79998 13.9699 2.79998 9.99999ZM20.8424 20.841C20.369 21.3144 19.5432 21.3016 19.0882 20.8168L14.8542 16.3441C15.414 15.9146 15.9142 15.4143 16.3437 14.8545L20.8186 19.0906C21.0596 19.3187 21.1951 19.6273 21.1998 19.9598C21.2045 20.293 21.0776 20.6059 20.8424 20.841Z" fill="#0069E4"/>
<path d="M13.2247 7.71249H12.1122V6.91249C12.1122 6.47148 11.7532 6.11249 11.3122 6.11249H8.68729C8.24629 6.11249 7.88731 6.47148 7.88731 6.91249V7.71249H6.77486C6.11317 7.71249 5.57489 8.25076 5.57489 8.9125V12.6875C5.57489 13.3492 6.11317 13.8875 6.77486 13.8875H13.2247C13.8863 13.8875 14.4246 13.3492 14.4246 12.6875V8.9125C14.4246 8.25076 13.8863 7.71249 13.2247 7.71249ZM8.68729 6.91249H11.3122V7.71249H8.68729V6.91249ZM6.77486 8.5125H8.2873H11.7122H13.2247C13.4453 8.5125 13.6246 8.69177 13.6246 8.9125V9.73747H6.37487V8.9125C6.37487 8.69177 6.55417 8.5125 6.77486 8.5125ZM13.2247 13.0875H6.77486C6.55417 13.0875 6.37487 12.9082 6.37487 12.6875V10.5375H13.6246V12.6875C13.6246 12.9082 13.4453 13.0875 13.2247 13.0875Z" fill="#0069E4"/>
</svg>
