<svg width="24" height="24" viewBox="0 0 24 24" fill="none" xmlns="http://www.w3.org/2000/svg">
<path d="M19.0634 6.33594C17.4394 6.33594 16.1268 7.64851 16.1268 9.27253C16.1268 9.58399 16.3938 9.85095 16.7052 9.85095C17.0167 9.85095 17.2836 9.60624 17.2836 9.27253C17.2836 8.31591 18.0623 7.51503 19.0412 7.51503C19.9978 7.51503 20.7987 8.31591 20.7987 9.27253C20.7987 10.2292 20.02 11.03 19.0412 11.03H2.57842C2.26696 11.03 2 11.297 2 11.6085C2 11.9199 2.24472 12.1869 2.57842 12.1869H19.0412C20.6652 12.1869 22 10.8966 22 9.27253C22 7.64851 20.6874 6.33594 19.0634 6.33594Z" fill="#0069E4"/>
<path d="M14.3693 13.3882H2.57842C2.26696 13.3882 2 13.6551 2 13.9666C2 14.2781 2.24472 14.545 2.57842 14.545H14.3248C15.2814 14.545 16.0823 15.3459 16.0823 16.3025C16.0823 17.2592 15.2814 18.06 14.3248 18.06C13.3682 18.06 12.5673 17.2814 12.5673 16.3025C12.5673 15.9911 12.3003 15.7241 11.9889 15.7241C11.6774 15.7241 11.4105 15.9688 11.4105 16.3025C11.4105 17.9266 12.723 19.2391 14.3471 19.2391C15.9711 19.2391 17.2614 17.9488 17.2614 16.3248C17.2614 14.723 15.9711 13.4104 14.3693 13.3882Z" fill="#0069E4"/>
<path d="M2.57842 9.85095H12.2336C13.8576 9.85095 15.1924 8.56062 15.1924 6.9366C15.1924 5.31257 13.8799 4 12.2558 4C10.6318 4 9.31924 5.31257 9.31924 6.9366C9.31924 7.24805 9.58621 7.51502 9.89766 7.51502C10.2091 7.51502 10.4761 7.2703 10.4761 6.9366C10.4761 5.97998 11.2547 5.17909 12.2336 5.17909C13.1902 5.17909 13.9911 5.97998 13.9911 6.9366C13.9911 7.89321 13.2125 8.6941 12.2336 8.6941C12.2336 8.6941 12.2336 8.6941 12.2113 8.6941H2.57842C2.26696 8.6941 2 8.93882 2 9.27252C2 9.58398 2.24472 9.85095 2.57842 9.85095Z" fill="#0069E4"/>
</svg>
