<svg width="24" height="24" viewBox="0 0 24 24" fill="none" xmlns="http://www.w3.org/2000/svg">
<path d="M9.19697 5.01684V5.73232L12.3914 5.73653L15.5838 5.74285L15.6785 5.78704C15.7963 5.84386 15.9141 5.9596 15.9773 6.08796C16.0257 6.18477 16.0257 6.18897 16.0257 7.04335V7.90194L15.5311 7.90615L15.0366 7.91035L15.0303 8.32492L15.0261 8.74158H11.5118H7.99748V9.45707V10.1726H11.5118H15.0261V10.5198V10.867H11.5118H7.99748V11.5825V12.298H11.5118H15.0261V12.5295V12.7609H11.5118H7.99748L8.00169 13.4785L8.008 14.1982L11.3897 14.194C13.2479 14.1919 14.8283 14.1961 14.8977 14.2045L15.0261 14.2193V14.5518V14.8864H11.5118H7.99748V15.6019V16.3173H11.5118H15.0261V17.4432V18.569H11.8801H8.73401L8.7298 17.8683L8.72349 17.1696L8.00379 17.1633L7.28199 17.1591V17.8641V18.569H6.39815H5.51431V19.2845V20H11.8801H18.2458L18.2416 19.2908L18.2353 18.5795L17.3514 18.569L16.4676 18.5585L16.4613 17.8577L16.4571 17.1591H18.5236H20.5922L21.295 16.4562L22 15.7513L21.9958 12.5358L21.9916 9.32029L21.2803 8.60901L20.5711 7.89773L20.2344 7.90194L19.8977 7.90404L19.8914 7.36532L19.8872 6.8266H19.1717H18.4562V7.36111V7.89562L18.2626 7.91035C18.1553 7.91667 18.0017 7.91877 17.9196 7.91456C17.8397 7.90825 17.705 7.90404 17.6208 7.90194L17.4693 7.89983L17.4609 6.95707C17.4524 5.87542 17.4461 5.83544 17.2588 5.44823C17.0779 5.07997 16.8169 4.79167 16.4781 4.58754C16.2929 4.47391 15.9731 4.35817 15.7626 4.3245C15.6721 4.30976 14.5295 4.30135 12.4125 4.30135H9.19697V5.01684ZM20.2828 9.63173L20.5606 9.90951V12.5295V15.1494L20.2828 15.4272L20.0029 15.7071H18.2311H16.4571V12.5295V9.35185H18.2311H20.0029L20.2828 9.63173Z" fill="#77848D"/>
<path d="M3.45202 7.91459C3.43519 7.9209 3.10059 8.24498 2.70917 8.63429L2 9.34136V12.5358V15.7302L2.7197 16.4436L3.4415 17.1591H5.31018H7.17677L7.17256 12.5337L7.16625 7.91038L5.32492 7.90828C4.31271 7.90617 3.46886 7.91038 3.45202 7.91459ZM5.74579 12.5295V15.7071H4.87879H4.00968L3.72138 15.4188L3.43098 15.1284V12.5295V9.93058L3.71928 9.64228L4.00968 9.35188H4.87668H5.74579V12.5295Z" fill="#77848D"/>
</svg>
