<svg width="24" height="24" viewBox="0 0 24 24" fill="none" xmlns="http://www.w3.org/2000/svg">
<path fill-rule="evenodd" clip-rule="evenodd" d="M5.26088 16.2221C5.06088 16.3378 4.82436 16.4743 4.62436 16.59C4.22088 16.823 3.97218 17.2535 3.97218 17.7195V18.4543C3.97218 18.9204 4.22088 19.3508 4.62436 19.5839C4.82436 19.6995 5.06088 19.8361 5.26088 19.9517C5.66436 20.1848 6.16175 20.1848 6.56523 19.9517C6.76523 19.8361 7.00175 19.6995 7.20175 19.5839C7.60523 19.3508 7.85393 18.9204 7.85393 18.4543V17.7195C7.85393 17.2535 7.60523 16.823 7.20175 16.59C7.00175 16.4743 6.76523 16.3378 6.56523 16.2221C6.16175 15.9891 5.66436 15.9891 5.26088 16.2221ZM5.69566 16.9752C5.83001 16.8978 5.9961 16.8978 6.13045 16.9752C6.33045 17.0908 6.56697 17.2274 6.76697 17.343C6.90175 17.4204 6.98436 17.5639 6.98436 17.7195V18.4543C6.98436 18.61 6.90175 18.7535 6.76697 18.8308C6.56697 18.9465 6.33045 19.083 6.13045 19.1987C5.9961 19.2761 5.83001 19.2761 5.69566 19.1987C5.49566 19.083 5.25914 18.9465 5.05914 18.8308C4.92436 18.7535 4.84175 18.61 4.84175 18.4543V17.7195C4.84175 17.5639 4.92436 17.4204 5.05914 17.343L5.69566 16.9752Z" fill="#77848D"/>
<path fill-rule="evenodd" clip-rule="evenodd" d="M11.4374 15.6365C11.4996 15.767 11.5848 15.8887 11.6926 15.9965C13.1713 17.4752 16.8043 21.1087 16.8043 21.1087C17.9922 22.2965 19.9209 22.2965 21.1087 21.1087C22.2965 19.9209 22.2965 17.9922 21.1087 16.8043L15.9965 11.6926C15.8887 11.5848 15.767 11.5 15.637 11.4378L17.323 9.75131C17.57 9.80044 17.8257 9.82609 18.087 9.82609C20.2465 9.82609 22 8.07261 22 5.91304C22 5.33913 21.8761 4.79392 21.6535 4.30218C21.5948 4.17218 21.4757 4.07956 21.3357 4.05391C21.1952 4.02826 21.0509 4.07305 20.95 4.17435C20.95 4.17435 19.3161 5.80826 18.8017 6.32218C18.7857 6.3387 18.7635 6.34783 18.7404 6.34783H17.7391C17.7161 6.34783 17.6939 6.3387 17.6778 6.32218C17.6613 6.30609 17.6522 6.28391 17.6522 6.26086V5.25957C17.6522 5.23653 17.6613 5.21434 17.6778 5.19826L19.8256 3.05C19.927 2.94913 19.9717 2.80479 19.9461 2.66435C19.9204 2.52435 19.8278 2.40522 19.6978 2.34652C19.2061 2.12391 18.6609 2 18.087 2C15.9274 2 14.1739 3.75348 14.1739 5.91304C14.1739 6.17435 14.1996 6.42956 14.2487 6.67695L11.4226 9.50304L6.74043 4.82131L6.40435 3.47696C6.32478 3.15957 6.08913 2.90478 5.77869 2.8013L3.74783 2.12435C3.40391 2.00957 3.02522 2.09912 2.7687 2.35521L2.35522 2.7687C2.09913 3.02522 2.00956 3.40391 2.12435 3.74782C2.29565 4.2613 2.63826 5.28913 2.80131 5.7787C2.90478 6.08913 3.15957 6.32478 3.47696 6.40435L4.8213 6.74044L9.50305 11.4226L6.67696 14.2487C6.43 14.1996 6.17435 14.1739 5.91304 14.1739C3.75348 14.1739 2 15.9274 2 18.087C2 20.2465 3.75348 22 5.91304 22C8.07261 22 9.82609 20.2465 9.82609 18.087C9.82609 17.8257 9.80044 17.57 9.75131 17.323L11.4374 15.6365ZM15.0339 7.1213C15.1439 7.0113 15.187 6.8513 15.1465 6.7013C15.0791 6.44956 15.0435 6.18565 15.0435 5.91304C15.0435 4.23348 16.4074 2.86957 18.087 2.86957C18.3013 2.86957 18.5104 2.89174 18.7122 2.93392L17.0626 4.58305C16.8835 4.76261 16.7826 5.00609 16.7826 5.25957C16.7826 5.50826 16.7826 5.92608 16.7826 6.26086C16.7826 6.51434 16.8835 6.75782 17.0626 6.93739C17.2422 7.11652 17.4857 7.21739 17.7391 7.21739H18.7404C18.9939 7.21739 19.2374 7.11652 19.417 6.93739L21.0661 5.28783C21.1083 5.48957 21.1304 5.6987 21.1304 5.91304C21.1304 7.59261 19.7665 8.95652 18.087 8.95652C17.8143 8.95652 17.5504 8.92087 17.2987 8.85348C17.1487 8.81304 16.9887 8.85609 16.8787 8.96609L8.96609 16.8787C8.85609 16.9887 8.81304 17.1487 8.85348 17.2987C8.92087 17.5504 8.95652 17.8143 8.95652 18.087C8.95652 19.7665 7.59261 21.1304 5.91304 21.1304C4.23348 21.1304 2.86957 19.7665 2.86957 18.087C2.86957 16.4074 4.23348 15.0435 5.91304 15.0435C6.18565 15.0435 6.44957 15.0791 6.70131 15.1465C6.85131 15.187 7.01131 15.1439 7.12131 15.0339L15.0339 7.1213ZM15.3817 12.3074L20.4939 17.4191C21.3422 18.2678 21.3422 19.6452 20.4939 20.4939C19.6452 21.3422 18.2678 21.3422 17.4191 20.4939C17.4191 20.4939 13.7861 16.8604 12.3074 15.3817C12.1378 15.2122 12.1378 14.937 12.3074 14.767L14.767 12.3074C14.937 12.1378 15.2122 12.1378 15.3817 12.3074ZM10.8074 10.1183L10.1183 10.8074L5.35087 6.04043C5.29522 5.98478 5.22522 5.94522 5.14913 5.92609L3.68783 5.56087C3.6587 5.55348 3.63565 5.53217 3.62609 5.50391L2.94913 3.47261C2.9387 3.44174 2.94696 3.40696 2.97 3.38392L3.38391 2.97043C3.40696 2.94695 3.44174 2.9387 3.47261 2.94914L5.50392 3.62608C5.53218 3.63565 5.55348 3.65869 5.56087 3.68782L5.92609 5.14914C5.94522 5.22522 5.98478 5.29522 6.04043 5.35087L10.8074 10.1183Z" fill="#77848D"/>
<path fill-rule="evenodd" clip-rule="evenodd" d="M19.2639 18.6491L14.9161 14.3013C14.7465 14.1317 14.4709 14.1317 14.3013 14.3013C14.1317 14.4709 14.1317 14.7465 14.3013 14.9161L18.6491 19.2639C18.8187 19.4335 19.0944 19.4335 19.2639 19.2639C19.4335 19.0944 19.4335 18.8187 19.2639 18.6491Z" fill="#77848D"/>
</svg>
