<svg width="16" height="16" viewBox="0 0 16 16" fill="none" xmlns="http://www.w3.org/2000/svg">
<path d="M7.2175 10.4675C7.18525 10.5031 7.15519 10.5407 7.1275 10.58C7.09912 10.6218 7.07642 10.6672 7.06 10.715C7.03838 10.7575 7.02321 10.803 7.015 10.85C7.01132 10.8999 7.01132 10.9501 7.015 11C7.01247 11.0984 7.03302 11.196 7.075 11.285C7.10869 11.3781 7.16243 11.4626 7.23242 11.5326C7.30241 11.6026 7.38693 11.6563 7.48 11.69C7.56978 11.7297 7.66685 11.7502 7.765 11.7502C7.86316 11.7502 7.96023 11.7297 8.05 11.69C8.14308 11.6563 8.2276 11.6026 8.29759 11.5326C8.36758 11.4626 8.42132 11.3781 8.455 11.285C8.48831 11.1938 8.50359 11.097 8.5 11C8.50058 10.9013 8.48166 10.8034 8.44433 10.7121C8.40701 10.6207 8.35202 10.5376 8.2825 10.4675C8.21278 10.3972 8.12983 10.3414 8.03844 10.3033C7.94704 10.2653 7.84901 10.2457 7.75 10.2457C7.651 10.2457 7.55297 10.2653 7.46157 10.3033C7.37018 10.3414 7.28723 10.3972 7.2175 10.4675ZM7.75 0.5C6.26664 0.5 4.8166 0.939867 3.58323 1.76398C2.34986 2.58809 1.38856 3.75943 0.820907 5.12987C0.25325 6.50032 0.104725 8.00832 0.394114 9.46318C0.683503 10.918 1.39781 12.2544 2.4467 13.3033C3.4956 14.3522 4.83197 15.0665 6.28683 15.3559C7.74168 15.6453 9.24968 15.4968 10.6201 14.9291C11.9906 14.3614 13.1619 13.4001 13.986 12.1668C14.8101 10.9334 15.25 9.48336 15.25 8C15.25 7.01509 15.056 6.03982 14.6791 5.12987C14.3022 4.21993 13.7497 3.39314 13.0533 2.6967C12.3569 2.00026 11.5301 1.44781 10.6201 1.0709C9.71019 0.693993 8.73492 0.5 7.75 0.5ZM7.75 14C6.56332 14 5.40328 13.6481 4.41658 12.9888C3.42989 12.3295 2.66085 11.3925 2.20673 10.2961C1.7526 9.19974 1.63378 7.99334 1.86529 6.82946C2.0968 5.66557 2.66825 4.59647 3.50736 3.75736C4.34648 2.91824 5.41558 2.3468 6.57946 2.11529C7.74335 1.88378 8.94975 2.0026 10.0461 2.45672C11.1425 2.91085 12.0795 3.67988 12.7388 4.66658C13.3981 5.65327 13.75 6.81331 13.75 8C13.75 9.5913 13.1179 11.1174 11.9926 12.2426C10.8674 13.3679 9.3413 14 7.75 14ZM7.75 4.25C7.3548 4.24975 6.9665 4.35359 6.62419 4.55108C6.28187 4.74857 5.9976 5.03274 5.8 5.375C5.74574 5.46036 5.7093 5.55582 5.69288 5.65563C5.67647 5.75544 5.68041 5.85754 5.70448 5.95579C5.72854 6.05404 5.77223 6.1464 5.83292 6.22733C5.8936 6.30825 5.97003 6.37606 6.05761 6.42668C6.14518 6.4773 6.24209 6.50969 6.3425 6.52188C6.44292 6.53408 6.54476 6.52584 6.64191 6.49766C6.73905 6.46947 6.82949 6.42193 6.90779 6.35789C6.98609 6.29385 7.05062 6.21463 7.0975 6.125C7.16358 6.01055 7.25873 5.91559 7.37331 5.84973C7.4879 5.78388 7.61785 5.74948 7.75 5.75C7.94892 5.75 8.13968 5.82902 8.28033 5.96967C8.42099 6.11032 8.5 6.30109 8.5 6.5C8.5 6.69891 8.42099 6.88968 8.28033 7.03033C8.13968 7.17098 7.94892 7.25 7.75 7.25C7.55109 7.25 7.36033 7.32902 7.21967 7.46967C7.07902 7.61032 7 7.80109 7 8V8.75C7 8.94891 7.07902 9.13968 7.21967 9.28033C7.36033 9.42098 7.55109 9.5 7.75 9.5C7.94892 9.5 8.13968 9.42098 8.28033 9.28033C8.42099 9.13968 8.5 8.94891 8.5 8.75V8.615C8.99603 8.43502 9.41302 8.08642 9.67808 7.63015C9.94314 7.17388 10.0394 6.63897 9.95005 6.11892C9.8607 5.59887 9.5914 5.12676 9.18925 4.78514C8.78709 4.44351 8.27766 4.25409 7.75 4.25Z" fill="#111827" fill-opacity="0.42"/>
</svg>
