<svg width="41" height="58" viewBox="0 0 41 58" fill="none" xmlns="http://www.w3.org/2000/svg">
<path fill-rule="evenodd" clip-rule="evenodd" d="M0 7.03943C0 3.15166 3.37493 0 7.53812 0H33.4619C37.6251 0 41 3.15166 41 7.03943V42.575C41 45.0532 39.6046 47.3488 37.326 48.6192L20.5 58L3.674 48.6192C1.39542 47.3488 0 45.0532 0 42.575V7.03943ZM7.53812 3.77726C5.60884 3.77726 4.04484 5.23778 4.04484 7.03943V42.575C4.04484 43.7234 4.6915 44.7872 5.74743 45.3759L20.5 53.6008L35.2526 45.3759C36.3085 44.7872 36.9552 43.7234 36.9552 42.575V7.03943C36.9552 5.23778 35.3912 3.77726 33.4619 3.77726H7.53812Z" fill="#E5E7EB"/>
<path d="M20.0489 11.927C20.3483 11.0057 21.6517 11.0057 21.9511 11.9271L22.5716 13.8369C22.7055 14.2489 23.0894 14.5279 23.5227 14.5279H25.5308C26.4995 14.5279 26.9023 15.7675 26.1186 16.3369L24.494 17.5172C24.1435 17.7719 23.9968 18.2232 24.1307 18.6353L24.7512 20.5451C25.0506 21.4664 23.9961 22.2325 23.2124 21.6631L21.5878 20.4828C21.2373 20.2281 20.7627 20.2281 20.4122 20.4828L18.7876 21.6631C18.0039 22.2325 16.9494 21.4664 17.2488 20.5451L17.8693 18.6353C18.0032 18.2232 17.8565 17.7719 17.506 17.5172L15.8814 16.3369C15.0977 15.7675 15.5005 14.5279 16.4692 14.5279H18.4773C18.9106 14.5279 19.2945 14.2489 19.4284 13.8369L20.0489 11.927Z" fill="#E5E7EB"/>
<path d="M12.0489 25.927C12.3483 25.0057 13.6517 25.0057 13.9511 25.9271L14.5716 27.8369C14.7055 28.2489 15.0894 28.5279 15.5227 28.5279H17.5308C18.4995 28.5279 18.9023 29.7675 18.1186 30.3369L16.494 31.5172C16.1435 31.7719 15.9968 32.2232 16.1307 32.6353L16.7512 34.5451C17.0506 35.4664 15.9961 36.2325 15.2124 35.6631L13.5878 34.4828C13.2373 34.2281 12.7627 34.2281 12.4122 34.4828L10.7876 35.6631C10.0039 36.2325 8.94942 35.4664 9.24877 34.5451L9.86932 32.6353C10.0032 32.2232 9.85653 31.7719 9.50604 31.5172L7.88144 30.3369C7.09773 29.7675 7.50051 28.5279 8.46923 28.5279H10.4773C10.9106 28.5279 11.2945 28.2489 11.4284 27.8369L12.0489 25.927Z" fill="#E5E7EB"/>
<path d="M27.5434 26.1404C27.8312 25.1956 29.1688 25.1956 29.4566 26.1404L29.968 27.8193C30.0962 28.2402 30.4846 28.5279 30.9246 28.5279H32.7101C33.6631 28.5279 34.0759 29.7345 33.3226 30.3183L31.7695 31.522C31.4414 31.7762 31.3045 32.2067 31.4254 32.6038L31.9921 34.4642C32.2763 35.397 31.1937 36.1433 30.423 35.546L29.1126 34.5304C28.752 34.251 28.248 34.251 27.8874 34.5304L26.577 35.546C25.8063 36.1433 24.7237 35.397 25.0079 34.4642L25.5746 32.6038C25.6955 32.2067 25.5586 31.7762 25.2305 31.522L23.6774 30.3183C22.9241 29.7345 23.3369 28.5279 24.2899 28.5279H26.0754C26.5154 28.5279 26.9038 28.2402 27.032 27.8193L27.5434 26.1404Z" fill="#E5E7EB"/>
</svg>
