<svg width="36" height="40" viewBox="0 0 36 40" fill="none" xmlns="http://www.w3.org/2000/svg">
<path d="M2.88365 18.0713H0V15.7393H8.52557V18.0713H5.64192V33.3331L4.85002 32.8566C4.10757 32.3696 2.88365 31.0252 2.88365 28.9752V18.0713Z" fill="#6B7280"/>
<path fill-rule="evenodd" clip-rule="evenodd" d="M2.88379 5.23341C2.88379 2.61922 5.16245 0.5 7.97331 0.5H25.4763C27.439 0.5 29.1423 1.53329 29.9914 3.04687H25.666C25.6034 3.04224 25.5402 3.03988 25.4763 3.03988H7.97331C6.67072 3.03988 5.61475 4.02196 5.61475 5.23341V13.4303H2.88379V5.23341ZM27.8349 23.9893V29.128C27.8349 29.9002 27.3983 30.6156 26.6853 31.0114L16.7248 36.5419L8.12065 31.7645V34.7226L16.7248 39.5L28.0852 33.1922C29.6237 32.338 30.5658 30.7944 30.5658 29.128V23.9893H27.8349Z" fill="#6B7280"/>
<path d="M27.8257 5.35547H31.8879C33.2586 5.35547 34.2866 5.69751 34.972 6.38158C35.6574 7.06566 36.0001 8.06845 36.0001 9.38995V10.9991C36.0001 12.3206 35.6574 13.3234 34.972 14.0075C34.2866 14.6915 33.2586 15.0336 31.8879 15.0336H30.584V21.68H27.8257V5.35547ZM31.8879 12.7015C32.3392 12.7015 32.6735 12.5849 32.8908 12.3517C33.1248 12.1185 33.2418 11.722 33.2418 11.1623V9.22671C33.2418 8.66701 33.1248 8.27056 32.8908 8.03735C32.6735 7.80415 32.3392 7.68754 31.8879 7.68754H30.584V12.7015H31.8879Z" fill="#6B7280"/>
<path d="M15.301 10.3135H19.0372L21.8958 26.638H19.1375L18.636 23.3964V23.443H15.5016L15.0001 26.638H12.4424L15.301 10.3135ZM18.31 21.2276L17.0813 13.1586H17.0312L15.8275 21.2276H18.31Z" fill="#F1AB40"/>
</svg>
