<svg width="36" height="40" viewBox="0 0 36 40" fill="none" xmlns="http://www.w3.org/2000/svg">
<path d="M2.88363 18.0716H0V15.7395H8.52553V18.0716H5.64189V33.3334L4.84999 32.8569C4.10754 32.3699 2.88363 31.0254 2.88363 28.9755V18.0716Z" fill="#0069E4"/>
<path fill-rule="evenodd" clip-rule="evenodd" d="M2.88428 5.23341C2.88428 2.61922 5.16292 0.5 7.97377 0.5H25.4767C27.4394 0.5 29.1427 1.53329 29.9918 3.04688H25.6664C25.6038 3.04224 25.5406 3.03988 25.4767 3.03988H7.97377C6.67119 3.03988 5.61523 4.02196 5.61523 5.23341V13.4306H2.88428V5.23341ZM27.8352 23.9893V29.128C27.8352 29.9002 27.3986 30.6156 26.6857 31.0114L16.7252 36.5419L8.12133 31.7646V34.7227L16.7252 39.5L28.0856 33.1922C29.624 32.338 30.5662 30.7944 30.5662 29.128V23.9893H27.8352Z" fill="#0069E4"/>
<path d="M27.8257 5.35547H31.8878C33.2586 5.35547 34.2866 5.69751 34.972 6.38158C35.6574 7.06566 36.0001 8.06845 36.0001 9.38996V10.9991C36.0001 12.3206 35.6574 13.3234 34.972 14.0075C34.2866 14.6915 33.2586 15.0336 31.8878 15.0336H30.5839V21.68H27.8257V5.35547ZM31.8878 12.7015C32.3392 12.7015 32.6734 12.5849 32.8908 12.3517C33.1248 12.1185 33.2418 11.722 33.2418 11.1623V9.22671C33.2418 8.66701 33.1248 8.27056 32.8908 8.03735C32.6734 7.80415 32.3392 7.68754 31.8878 7.68754H30.5839V12.7015H31.8878Z" fill="#0069E4"/>
<path d="M15.3009 10.3135H19.0372L21.8957 26.638H19.1375L18.636 23.3964V23.443H15.5015L15 26.638H12.4424L15.3009 10.3135ZM18.31 21.2276L17.0813 13.1586H17.0312L15.8275 21.2276H18.31Z" fill="#0069E4"/>
</svg>
