<svg width="164" height="178" viewBox="0 0 164 178" fill="none" xmlns="http://www.w3.org/2000/svg">
<path d="M13.1365 80.0479H0V69.4241H38.8384V80.0479H25.7019V149.574L22.0943 147.403C18.7121 145.184 13.1365 139.06 13.1365 129.721V80.0479Z" fill="white" fill-opacity="0.9"/>
<path fill-rule="evenodd" clip-rule="evenodd" d="M13.1396 21.5632C13.1396 9.65419 23.5201 0 36.325 0H116.06C125.001 0 132.761 4.70719 136.629 11.6024H116.925C116.639 11.5813 116.351 11.5705 116.06 11.5705H36.325C30.391 11.5705 25.5806 16.0444 25.5806 21.5632V58.9061H13.1396V21.5632ZM126.805 107.007V130.416C126.805 133.934 124.816 137.193 121.568 138.996L76.1926 164.19L36.9976 142.427V155.903L76.1926 177.666L127.945 148.931C134.954 145.039 139.246 138.007 139.246 130.416V107.007H126.805Z" fill="white" fill-opacity="0.9"/>
<path d="M126.761 22.1194H145.266C151.511 22.1194 156.194 23.6776 159.316 26.7939C162.438 29.9102 163.999 34.4785 163.999 40.4986V47.8291C163.999 53.8493 162.438 58.4175 159.316 61.5338C156.194 64.6502 151.511 66.2083 145.266 66.2083H139.326V96.4863H126.761V22.1194ZM145.266 55.5845C147.322 55.5845 148.845 55.0533 149.835 53.9909C150.901 52.9285 151.434 51.1225 151.434 48.5727V39.755C151.434 37.2052 150.901 35.3992 149.835 34.3368C148.845 33.2744 147.322 32.7432 145.266 32.7432H139.326V55.5845H145.266Z" fill="white" fill-opacity="0.9"/>
<path d="M69.7039 44.7056H86.7244L99.7467 119.072H87.1813L84.8967 104.305V104.518H70.6178L68.3331 119.072H56.6816L69.7039 44.7056ZM83.4117 94.4251L77.8144 57.6667H77.586L72.1028 94.4251H83.4117Z" fill="white" fill-opacity="0.9"/>
</svg>
